<svg width="10" height="10" viewBox="0 0 10 10" fill="none" xmlns="http://www.w3.org/2000/svg">
<g clip-path="url(#clip0_45_438)">
<path d="M7.77351 0.387611L2.6935 5.46761C2.49948 5.66059 2.34566 5.89014 2.24096 6.14296C2.13625 6.39579 2.08273 6.66688 2.0835 6.94053V7.50011C2.0835 7.61062 2.1274 7.7166 2.20554 7.79474C2.28368 7.87288 2.38966 7.91678 2.50017 7.91678H3.05975C3.33341 7.91755 3.60449 7.86403 3.85732 7.75933C4.11015 7.65462 4.33969 7.5008 4.53267 7.30678L9.61267 2.22678C9.85617 1.98268 9.99292 1.65198 9.99292 1.30719C9.99292 0.962414 9.85617 0.631707 9.61267 0.387611C9.36504 0.1509 9.03566 0.0187988 8.69309 0.0187988C8.35052 0.0187988 8.02114 0.1509 7.77351 0.387611ZM9.0235 1.63761L3.9435 6.71761C3.70856 6.95113 3.39101 7.08258 3.05975 7.08344H2.91684V6.94053C2.91771 6.60928 3.04916 6.29173 3.28267 6.05678L8.36267 0.976778C8.45167 0.891759 8.57001 0.844317 8.69309 0.844317C8.81617 0.844317 8.93451 0.891759 9.0235 0.976778C9.11098 1.06449 9.1601 1.18332 9.1601 1.30719C9.1601 1.43107 9.11098 1.5499 9.0235 1.63761Z" fill="#59FC9C"/>
<path d="M9.58333 3.74125C9.47283 3.74125 9.36685 3.78515 9.28871 3.86329C9.21057 3.94143 9.16667 4.04741 9.16667 4.15792V6.25H7.5C7.16848 6.25 6.85054 6.3817 6.61612 6.61612C6.3817 6.85054 6.25 7.16848 6.25 7.5V9.16667H2.08333C1.75181 9.16667 1.43387 9.03497 1.19945 8.80055C0.965029 8.56613 0.833333 8.24819 0.833333 7.91667V2.08333C0.833333 1.75181 0.965029 1.43387 1.19945 1.19945C1.43387 0.965029 1.75181 0.833333 2.08333 0.833333H5.85083C5.96134 0.833333 6.06732 0.789435 6.14546 0.711295C6.2236 0.633154 6.2675 0.527174 6.2675 0.416667C6.2675 0.30616 6.2236 0.200179 6.14546 0.122039C6.06732 0.0438987 5.96134 0 5.85083 0L2.08333 0C1.531 0.000661607 1.00148 0.220367 0.610925 0.610925C0.220367 1.00148 0.000661607 1.531 0 2.08333L0 7.91667C0.000661607 8.469 0.220367 8.99852 0.610925 9.38908C1.00148 9.77963 1.531 9.99934 2.08333 10H6.80958C7.0833 10.0008 7.35445 9.94727 7.60735 9.84257C7.86024 9.73786 8.08986 9.58404 8.28292 9.39L9.38958 8.2825C9.58365 8.08953 9.73752 7.85999 9.84229 7.60717C9.94707 7.35435 10.0007 7.08326 10 6.80958V4.15792C10 4.04741 9.9561 3.94143 9.87796 3.86329C9.79982 3.78515 9.69384 3.74125 9.58333 3.74125ZM7.69375 8.80083C7.52626 8.96792 7.31445 9.08358 7.08333 9.13417V7.5C7.08333 7.38949 7.12723 7.28351 7.20537 7.20537C7.28351 7.12723 7.38949 7.08333 7.5 7.08333H9.13542C9.08387 7.31396 8.96834 7.52539 8.80208 7.69333L7.69375 8.80083Z" fill="#59FC9C"/>
</g>
<defs>
<clipPath id="clip0_45_438">
<rect width="10" height="10" fill="white"/>
</clipPath>
</defs>
</svg>
