<svg width="11" height="11" viewBox="0 0 11 11" fill="none" xmlns="http://www.w3.org/2000/svg">
<g clip-path="url(#clip0_44_586)">
<path d="M8.27351 0.887611L3.1935 5.96761C2.99948 6.16059 2.84566 6.39014 2.74096 6.64296C2.63625 6.89579 2.58273 7.16688 2.5835 7.44053V8.00011C2.5835 8.11062 2.6274 8.2166 2.70554 8.29474C2.78368 8.37288 2.88966 8.41678 3.00017 8.41678H3.55975C3.83341 8.41755 4.10449 8.36403 4.35732 8.25933C4.61015 8.15462 4.83969 8.0008 5.03267 7.80678L10.1127 2.72678C10.3562 2.48268 10.4929 2.15198 10.4929 1.80719C10.4929 1.46241 10.3562 1.13171 10.1127 0.887611C9.86504 0.6509 9.53566 0.518799 9.19309 0.518799C8.85052 0.518799 8.52114 0.6509 8.27351 0.887611ZM9.5235 2.13761L4.4435 7.21761C4.20856 7.45113 3.89101 7.58258 3.55975 7.58344H3.41684V7.44053C3.41771 7.10928 3.54916 6.79173 3.78267 6.55678L8.86267 1.47678C8.95167 1.39176 9.07001 1.34432 9.19309 1.34432C9.31617 1.34432 9.43451 1.39176 9.5235 1.47678C9.61098 1.56449 9.6601 1.68332 9.6601 1.80719C9.6601 1.93107 9.61098 2.0499 9.5235 2.13761Z" fill="white"/>
<path d="M10.0833 4.24125C9.97283 4.24125 9.86685 4.28515 9.78871 4.36329C9.71057 4.44143 9.66667 4.54741 9.66667 4.65792V6.75H8C7.66848 6.75 7.35054 6.8817 7.11612 7.11612C6.8817 7.35054 6.75 7.66848 6.75 8V9.66667H2.58333C2.25181 9.66667 1.93387 9.53497 1.69945 9.30055C1.46503 9.06613 1.33333 8.74819 1.33333 8.41667V2.58333C1.33333 2.25181 1.46503 1.93387 1.69945 1.69945C1.93387 1.46503 2.25181 1.33333 2.58333 1.33333H6.35083C6.46134 1.33333 6.56732 1.28943 6.64546 1.21129C6.7236 1.13315 6.7675 1.02717 6.7675 0.916667C6.7675 0.80616 6.7236 0.700179 6.64546 0.622039C6.56732 0.543899 6.46134 0.5 6.35083 0.5H2.58333C2.031 0.500662 1.50148 0.720367 1.11092 1.11092C0.720367 1.50148 0.500662 2.031 0.5 2.58333L0.5 8.41667C0.500662 8.969 0.720367 9.49852 1.11092 9.88908C1.50148 10.2796 2.031 10.4993 2.58333 10.5H7.30958C7.5833 10.5008 7.85445 10.4473 8.10735 10.3426C8.36024 10.2379 8.58986 10.084 8.78292 9.89L9.88958 8.7825C10.0836 8.58953 10.2375 8.35999 10.3423 8.10717C10.4471 7.85435 10.5007 7.58326 10.5 7.30958V4.65792C10.5 4.54741 10.4561 4.44143 10.378 4.36329C10.2998 4.28515 10.1938 4.24125 10.0833 4.24125ZM8.19375 9.30083C8.02626 9.46792 7.81445 9.58358 7.58333 9.63417V8C7.58333 7.88949 7.62723 7.78351 7.70537 7.70537C7.78351 7.62723 7.88949 7.58333 8 7.58333H9.63542C9.58387 7.81396 9.46834 8.02539 9.30208 8.19333L8.19375 9.30083Z" fill="white"/>
</g>
<defs>
<clipPath id="clip0_44_586">
<rect width="10" height="10" fill="white" transform="translate(0.5 0.5)"/>
</clipPath>
</defs>
</svg>
