<svg width="16" height="16" viewBox="0 0 16 16" fill="none" xmlns="http://www.w3.org/2000/svg">
<path fill-rule="evenodd" clip-rule="evenodd" d="M6.5 3H3V7.03333H6.5V3ZM9.5 3V7.53333C9.5 8.91405 8.38071 10.0333 7 10.0333H3V13H6.58339C6.9156 12.2537 7.6637 11.7333 8.53333 11.7333C9.40297 11.7333 10.1511 12.2537 10.4833 13H13V9.41661C12.2537 9.0844 11.7333 8.3363 11.7333 7.46667C11.7333 6.59703 12.2537 5.84893 13 5.51673V3H9.5ZM3 16H8.53333H13C14.6569 16 16 14.6569 16 13V7.46667V3C16 1.34315 14.6569 0 13 0H3C1.34315 0 0 1.34315 0 3V13C0 14.6569 1.34315 16 3 16ZM6.4 4.8C6.4 5.68366 5.68366 6.4 4.8 6.4C3.91634 6.4 3.2 5.68366 3.2 4.8C3.2 3.91634 3.91634 3.2 4.8 3.2C5.68366 3.2 6.4 3.91634 6.4 4.8Z" fill="#D9D9D9"/>
</svg>
