<svg width="175" height="175" viewBox="0 0 175 175" fill="none" xmlns="http://www.w3.org/2000/svg">
<circle cx="87.5" cy="87.5" r="87.5" fill="#2F2F2F"/>
<g clip-path="url(#clip0_107_15)">
<path d="M120.518 55.798C113.523 55.798 105.862 59.6558 97.782 67.2653C93.9693 70.8399 90.6113 74.7332 88.1627 77.8123C88.1627 77.8123 92.0804 82.378 96.3828 87.2976C98.7264 84.3246 102.049 80.2898 105.932 76.6444C113.103 69.8489 117.79 68.4686 120.483 68.4686C130.557 68.4686 138.743 77.0337 138.743 87.6162C138.743 98.0924 130.557 106.658 120.483 106.764C119.994 106.764 119.434 106.693 118.734 106.551C121.673 107.932 124.856 108.923 127.829 108.923C146.298 108.923 149.936 96.0043 150.146 95.0841C150.67 92.7127 150.985 90.2352 150.985 87.6869C150.95 70.0967 137.308 55.798 120.518 55.798Z" fill="url(#paint0_linear_107_15)"/>
<path d="M55.9819 119.434C62.9778 119.434 70.6382 115.576 78.7184 107.967C82.5311 104.392 85.8891 100.499 88.3376 97.42C88.3376 97.42 84.42 92.8543 80.1175 87.9347C77.7739 90.9077 74.4509 94.9425 70.5682 98.5879C63.3975 105.313 58.6753 106.764 56.0169 106.764C45.9429 106.764 37.7578 98.1986 37.7578 87.6161C37.7578 77.1399 45.9429 68.5748 56.0169 68.4686C56.5066 68.4686 57.0663 68.5394 57.7659 68.681C54.8276 67.3006 51.6445 66.3096 48.6713 66.3096C30.2023 66.2743 26.5645 79.1926 26.3546 80.1483C25.8299 82.5196 25.5151 84.9971 25.5151 87.5454C25.5151 105.136 39.157 119.434 55.9819 119.434Z" fill="url(#paint1_linear_107_15)"/>
<path fill-rule="evenodd" clip-rule="evenodd" d="M70.0435 76.9275C68.0148 74.9455 58.1506 66.8405 48.7063 66.5574C31.8464 66.1327 26.9143 78.5202 26.4596 80.1129C29.7126 66.2389 41.7454 55.8688 56.0169 55.798C67.665 55.798 79.4529 67.3714 88.1627 77.8123L88.1977 77.7769C88.1977 77.7769 92.1154 82.3426 96.4178 87.2622C96.4178 87.2622 101.315 93.1021 106.492 98.234C108.521 100.216 118.35 108.215 127.794 108.498C145.109 108.993 149.901 95.8981 150.146 94.9071C146.963 108.887 134.895 119.293 120.553 119.364C108.905 119.364 97.1174 107.79 88.3726 97.3492C88.3726 97.3846 88.3376 97.3846 88.3376 97.42C88.3376 97.42 84.42 92.8543 80.1175 87.9347C80.1525 87.9347 75.2554 82.0595 70.0435 76.9275Z" fill="#29ABE2"/>
</g>
<defs>
<linearGradient id="paint0_linear_107_15" x1="104.143" y1="60.8402" x2="147.777" y2="104.319" gradientUnits="userSpaceOnUse">
<stop offset="0.21" stop-color="#F15A24"/>
<stop offset="0.6841" stop-color="#FBB03B"/>
</linearGradient>
<linearGradient id="paint1_linear_107_15" x1="72.3683" y1="114.399" x2="28.7345" y2="70.9207" gradientUnits="userSpaceOnUse">
<stop offset="0.21" stop-color="#ED1E79"/>
<stop offset="0.8929" stop-color="#522785"/>
</linearGradient>
<clipPath id="clip0_107_15">
<rect width="125.505" height="63.6364" fill="white" transform="translate(25.5151 55.798)"/>
</clipPath>
</defs>
</svg>
