<svg width="29" height="25" viewBox="0 0 29 25" fill="none" xmlns="http://www.w3.org/2000/svg">
<g clip-path="url(#clip0_9_2768)">
<path d="M28.0931 11.7192H16.6142C16.114 11.7192 15.708 11.3692 15.708 10.938C15.708 10.5067 16.114 10.1567 16.6142 10.1567H28.0931C28.5933 10.1567 28.9993 10.5067 28.9993 10.938C28.9993 11.3692 28.5933 11.7192 28.0931 11.7192Z" fill="white"/>
<path d="M23.5618 15.6252C23.3297 15.6252 23.0978 15.5491 22.9213 15.3962C22.5673 15.0908 22.5673 14.5961 22.9213 14.2909L26.8121 10.9369L22.9213 7.58276C22.5673 7.27759 22.5673 6.78284 22.9213 6.47767C23.2755 6.17232 23.8494 6.17232 24.2034 6.47767L28.7345 10.3838C29.0885 10.689 29.0885 11.1837 28.7345 11.4889L24.2034 15.395C24.0257 15.5491 23.7938 15.6252 23.5618 15.6252Z" fill="white"/>
<path d="M9.66644 25.0002C9.4078 25.0002 9.16244 24.9689 8.9173 24.9033L1.64562 22.8148C0.656214 22.5169 0 21.7221 0 20.8337V2.08431C0 0.935357 1.08388 0.000976562 2.41666 0.000976562C2.67508 0.000976562 2.92044 0.0322561 3.1658 0.0978669L10.4373 2.18635C11.4269 2.48427 12.0829 3.27903 12.0829 4.16745V22.9169C12.0829 24.0658 10.9992 25.0002 9.66644 25.0002ZM2.41666 1.56343C2.08435 1.56343 1.81244 1.79783 1.81244 2.08431V20.8337C1.81244 21.0555 1.98524 21.2617 2.2317 21.3357L9.46931 23.4149C9.5213 23.4293 9.589 23.4377 9.66644 23.4377C9.99875 23.4377 10.2704 23.2033 10.2704 22.9169V4.16745C10.2704 3.94563 10.0976 3.73945 9.85118 3.66545L2.61357 1.58632C2.56158 1.57182 2.49388 1.56343 2.41666 1.56343Z" fill="white"/>
<path d="M18.4262 8.33399C17.926 8.33399 17.52 7.984 17.52 7.55276V2.86541C17.52 2.1477 16.8423 1.56331 16.0098 1.56331H2.41648C1.91624 1.56331 1.51025 1.21332 1.51025 0.78208C1.51025 0.350842 1.91624 0.000854492 2.41648 0.000854492H16.0098C17.8428 0.000854492 19.3325 1.28522 19.3325 2.86541V7.55276C19.3325 7.984 18.9265 8.33399 18.4262 8.33399Z" fill="white"/>
<path d="M16.0101 21.8751H11.1767C10.6765 21.8751 10.2705 21.5251 10.2705 21.0939C10.2705 20.6627 10.6765 20.3127 11.1767 20.3127H16.0101C16.8426 20.3127 17.5203 19.7283 17.5203 19.0106V14.3232C17.5203 13.892 17.9263 13.542 18.4265 13.542C18.9267 13.542 19.3327 13.892 19.3327 14.3232V19.0106C19.3327 20.5908 17.8431 21.8751 16.0101 21.8751Z" fill="white"/>
</g>
<defs>
<clipPath id="clip0_9_2768">
<rect width="29" height="25" fill="white"/>
</clipPath>
</defs>
</svg>
