<svg width="29" height="25" viewBox="0 0 29 25" fill="none" xmlns="http://www.w3.org/2000/svg">
<g clip-path="url(#clip0_64_772)">
<path d="M28.0931 11.7191H16.6142C16.114 11.7191 15.708 11.3691 15.708 10.9379C15.708 10.5067 16.114 10.1567 16.6142 10.1567H28.0931C28.5933 10.1567 28.9993 10.5067 28.9993 10.9379C28.9993 11.3691 28.5933 11.7191 28.0931 11.7191Z" fill="#59FC9C"/>
<path d="M23.5618 15.6253C23.3297 15.6253 23.0978 15.5492 22.9213 15.3962C22.5673 15.0909 22.5673 14.5961 22.9213 14.2909L26.8121 10.937L22.9213 7.58282C22.5673 7.27765 22.5673 6.7829 22.9213 6.47774C23.2755 6.17238 23.8494 6.17238 24.2034 6.47774L28.7345 10.3839C29.0885 10.689 29.0885 11.1838 28.7345 11.4889L24.2034 15.3951C24.0257 15.5492 23.7938 15.6253 23.5618 15.6253Z" fill="#59FC9C"/>
<path d="M9.66644 25.0003C9.4078 25.0003 9.16244 24.969 8.9173 24.9034L1.64562 22.8149C0.656214 22.517 0 21.7222 0 20.8338V2.08437C0 0.935418 1.08388 0.0010376 2.41666 0.0010376C2.67508 0.0010376 2.92044 0.0323172 3.1658 0.0979279L10.4373 2.18641C11.4269 2.48433 12.0829 3.27909 12.0829 4.16751V22.9169C12.0829 24.0659 10.9992 25.0003 9.66644 25.0003ZM2.41666 1.56349C2.08435 1.56349 1.81244 1.79789 1.81244 2.08437V20.8338C1.81244 21.0556 1.98524 21.2618 2.2317 21.3358L9.46931 23.4149C9.5213 23.4294 9.589 23.4378 9.66644 23.4378C9.99875 23.4378 10.2704 23.2034 10.2704 22.9169V4.16751C10.2704 3.94569 10.0976 3.73951 9.85118 3.66551L2.61357 1.58638C2.56158 1.57188 2.49388 1.56349 2.41666 1.56349Z" fill="#59FC9C"/>
<path d="M18.4262 8.33399C17.926 8.33399 17.52 7.984 17.52 7.55276V2.86541C17.52 2.1477 16.8423 1.56331 16.0098 1.56331H2.41648C1.91624 1.56331 1.51025 1.21332 1.51025 0.78208C1.51025 0.350842 1.91624 0.000854492 2.41648 0.000854492H16.0098C17.8428 0.000854492 19.3325 1.28522 19.3325 2.86541V7.55276C19.3325 7.984 18.9265 8.33399 18.4262 8.33399Z" fill="#59FC9C"/>
<path d="M16.0101 21.8751H11.1767C10.6765 21.8751 10.2705 21.5251 10.2705 21.0938C10.2705 20.6626 10.6765 20.3126 11.1767 20.3126H16.0101C16.8426 20.3126 17.5203 19.7282 17.5203 19.0105V14.3232C17.5203 13.8919 17.9263 13.5419 18.4265 13.5419C18.9267 13.5419 19.3327 13.8919 19.3327 14.3232V19.0105C19.3327 20.5907 17.8431 21.8751 16.0101 21.8751Z" fill="#59FC9C"/>
</g>
<defs>
<clipPath id="clip0_64_772">
<rect width="29" height="25" fill="white"/>
</clipPath>
</defs>
</svg>
