<svg width="168" height="168" viewBox="0 0 168 168" fill="none" xmlns="http://www.w3.org/2000/svg">
<path fill-rule="evenodd" clip-rule="evenodd" d="M77.7664 0.434991C64.3752 2.30216 52.8228 10.0085 45.5911 21.8981C40.5194 30.2365 38.3725 40.9544 39.8216 50.7002C41.4893 61.9157 47.0274 71.8357 55.5813 78.9296C57.0491 80.1469 57.1543 80.3179 56.5673 80.5306C43.671 85.198 34.2159 90.9804 24.9047 99.8938C13.3194 110.984 5.25914 124.754 1.11529 140.533C-0.318038 145.991 -0.36931 150.499 0.958512 154.297C3.07645 160.356 7.42836 164.76 13.4522 166.939L15.8124 167.793L30.1095 167.897L44.4066 168L45.8665 167.249C46.6694 166.835 47.7787 165.93 48.3315 165.236C49.259 164.072 49.3366 163.777 49.3366 161.41C49.3366 159.043 49.259 158.748 48.3315 157.584C47.7787 156.89 46.675 155.991 45.879 155.584C44.4522 154.856 44.2511 154.846 31.7653 154.844C23.5016 154.843 18.6425 154.716 17.7854 154.478C15.2904 153.786 13.0269 150.715 13.0207 148.013C13.0177 146.864 14.5674 140.988 15.8492 137.287C18.142 130.666 22.8784 122.157 27.4509 116.446C34.7299 107.352 45.336 99.3539 56.0743 94.8604C65.6096 90.8704 73.1858 89.3879 84.0111 89.3935C93.4249 89.3984 98.1663 90.1388 107.094 92.9979C111.006 94.251 112.372 94.3707 114.172 93.6195C116.687 92.5705 118.193 90.302 118.193 87.5634C118.193 84.4865 116.404 82.1939 113.191 81.1529C112.236 80.8434 111.338 80.484 111.194 80.3543C111.051 80.2244 111.791 79.4147 112.838 78.5551C113.885 77.6955 115.824 75.7982 117.147 74.3386C133.05 56.7911 132.348 29.8446 115.552 13.0716C105.598 3.13154 91.7184 -1.50996 77.7664 0.434991ZM90.0399 13.7362C96.3661 15.0166 101.662 17.8526 106.213 22.3976C110.785 26.963 113.59 32.2031 114.919 38.6606C117.034 48.9305 113.379 60.1699 105.547 67.4863C100.85 71.8745 95.6378 74.4371 89.0943 75.5766C82.5647 76.7135 75.8542 75.6702 69.7141 72.563C59.5427 67.4161 53.1018 57.3356 52.5615 45.717C52.1615 37.1249 55.5057 28.6926 61.8092 22.3976C69.3437 14.8738 79.8045 11.6643 90.0399 13.7362ZM121.871 103.326C118.542 104.197 116.419 105.42 113.913 107.912C111.753 110.06 111.235 110.896 109.635 114.805L108.762 116.938L86.28 117.102C66.0944 117.249 63.6958 117.322 62.7972 117.814C61.1562 118.713 49.1765 131.136 48.4853 132.656C47.7429 134.289 47.6909 136.089 48.3417 137.644C48.9106 139.004 60.1551 150.822 62.319 152.335L63.798 153.369H76.6161H89.4342L90.6887 152.59C91.3789 152.162 92.3403 151.212 92.8251 150.481C93.5596 149.372 93.7069 148.786 93.7069 146.969C93.7069 145.152 93.5596 144.565 92.8251 143.457C92.3403 142.725 91.3789 141.776 90.6887 141.348C89.4473 140.577 89.3247 140.568 79.0811 140.473L68.7281 140.376L66.2045 137.878L63.6813 135.38L66.0208 132.805L68.3606 130.23H91.6938C114.647 130.23 115.05 130.219 116.438 129.548C118.604 128.501 119.332 127.362 120.792 122.736C122.186 118.323 122.889 117.081 124.45 116.275C125.818 115.568 147.237 115.557 148.927 116.262C150.299 116.835 151.066 118.034 152.4 121.697C154.724 128.076 155.501 134.869 154.541 140.405C153.797 144.687 152.52 149.066 151.278 151.586C149.629 154.932 150.023 154.845 136.659 154.845C128.966 154.846 125.152 154.729 124.662 154.478C122.773 153.508 122.127 152.453 120.77 148.125C120.034 145.774 119.087 143.392 118.666 142.83C116.493 139.932 111.664 139.704 108.99 142.374C107.315 144.046 106.773 146.094 107.314 148.709C107.907 151.577 109.556 156.351 110.736 158.62C112.133 161.306 115.567 164.658 118.295 165.999C121.958 167.799 123.348 167.95 136.456 167.963C149.537 167.975 150.96 167.833 154.622 166.147C157.777 164.694 161.293 161.235 162.83 158.071C164.245 155.158 166.313 148.805 167.209 144.614C168.195 140.005 168.271 131.582 167.369 126.784C166.279 120.979 163.824 113.93 161.789 110.756C160.278 108.4 157.203 105.691 154.719 104.528C151.068 102.818 149.724 102.683 136.434 102.69C125.522 102.696 124.026 102.762 121.871 103.326ZM139.297 128.941C137.731 129.419 135.719 131.568 135.267 133.246C134.48 136.163 135.649 139.23 138.137 140.775C140.002 141.932 143.211 141.885 145.045 140.673C147.096 139.317 147.937 137.713 147.937 135.153C147.937 132.627 147.098 130.991 145.139 129.696C143.729 128.764 141.02 128.414 139.297 128.941Z" fill="url(#paint0_linear_6_1952)"/>
<defs>
<linearGradient id="paint0_linear_6_1952" x1="84" y1="0" x2="84" y2="168" gradientUnits="userSpaceOnUse">
<stop offset="0.0208333" stop-color="#59D5FC"/>
<stop offset="1" stop-color="#3CC498"/>
</linearGradient>
</defs>
</svg>
