<svg width="105" height="105" viewBox="0 0 105 105" fill="none" xmlns="http://www.w3.org/2000/svg">
<path d="M52.5 2.5C25 2.5 2.5 25 2.5 52.5C2.5 80 25 102.5 52.5 102.5C80.1562 102.5 102.5 80 102.5 52.5C102.5 25 80.1562 2.5 52.5 2.5ZM52.5 99.5312C26.5625 99.5312 5.46875 78.4375 5.46875 52.5C5.46875 26.5625 26.5625 5.46875 52.5 5.46875C78.4375 5.46875 99.5312 26.5625 99.5312 52.5C99.5312 78.4375 78.4375 99.5312 52.5 99.5312Z" fill="#59D5FC" stroke="#59D5FC" stroke-width="4.13223"/>
<path d="M52.5003 5.46875C26.5628 5.46875 5.46904 26.5625 5.46904 52.5C5.46904 78.4375 26.5628 99.5312 52.5003 99.5312C78.4378 99.5312 99.5315 78.4375 99.5315 52.5C99.5315 26.5625 78.4378 5.46875 52.5003 5.46875ZM52.5003 22.3438C60.0003 22.3438 66.2503 28.4375 66.2503 36.0938C66.2503 43.5938 60.1565 49.8438 52.5003 49.8438C45.0003 49.8438 38.7503 43.75 38.7503 36.0938C38.9065 28.5938 45.0003 22.3438 52.5003 22.3438ZM77.344 81.25H27.6565C26.8753 81.25 26.094 80.625 26.094 79.6875C26.094 65.1563 37.969 53.2813 52.5003 53.2813C67.0315 53.2813 78.9065 65.1563 78.9065 79.6875C78.9065 80.625 78.2815 81.25 77.344 81.25Z" fill="#1C1C1E"/>
<path d="M52.4221 52.5C37.8909 52.5 26.0159 64.375 26.0159 78.9063C26.0159 79.6875 26.6409 80.4688 27.5784 80.4688H77.4221C78.2034 80.4688 78.9846 79.8438 78.9846 78.9063C78.8284 64.375 66.9534 52.5 52.4221 52.5ZM29.1409 77.5C29.9221 65.3125 40.0784 55.625 52.4221 55.625C64.7659 55.625 74.9221 65.3125 75.7034 77.5H29.1409Z" fill="#59D5FC"/>
<path d="M75.7034 77.5H29.1409C29.9221 65.3125 40.0784 55.625 52.4221 55.625C64.7659 55.625 74.9221 65.3125 75.7034 77.5Z" fill="#59D5FC"/>
<path d="M52.5002 22.3438C45.0002 22.3438 38.7502 28.4375 38.7502 36.0938C38.7502 43.5938 44.8439 49.8437 52.5002 49.8437C60.0002 49.8437 66.2502 43.75 66.2502 36.0938C66.2502 28.5938 60.0002 22.3438 52.5002 22.3438ZM52.5002 46.7188C46.5627 46.7188 41.8752 42.0312 41.8752 36.0938C41.8752 30.1563 46.7189 25.4688 52.5002 25.4688C58.4377 25.4688 63.1252 30.3125 63.1252 36.0938C63.1252 41.875 58.4377 46.7188 52.5002 46.7188Z" fill="#59D5FC"/>
<path d="M63.1251 36.0938C63.1251 42.0313 58.2814 46.7188 52.5002 46.7188C46.5627 46.7188 41.8752 42.0313 41.8752 36.0938C41.8752 30.1563 46.7189 25.4688 52.5002 25.4688C58.4377 25.4688 63.1251 30.1563 63.1251 36.0938Z" fill="#1C1C1E"/>
<path d="M52.4221 55.625C40.0784 55.625 29.9221 65.3125 29.1409 77.5H75.8596C74.9221 65.3125 64.7659 55.625 52.4221 55.625ZM52.4221 57.9688C62.5784 57.9688 71.3284 65.3125 73.0471 75.1562H31.7971C33.5159 65.3125 42.2659 57.9688 52.4221 57.9688Z" fill="#45BEE4"/>
<path d="M52.5002 25.4688C46.5627 25.4688 41.8752 30.3125 41.8752 36.0938C41.8752 41.875 46.7189 46.7188 52.5002 46.7188C58.4377 46.7188 63.1251 42.0313 63.1251 36.0938C63.1251 30.1563 58.4377 25.4688 52.5002 25.4688ZM52.5002 44.375C47.9689 44.375 44.2189 40.625 44.2189 36.0938C44.2189 31.5625 47.9689 27.8125 52.5002 27.8125C57.0314 27.8125 60.7814 31.5625 60.7814 36.0938C60.7814 40.625 57.0314 44.375 52.5002 44.375Z" fill="#40C1BA"/>
</svg>
