<svg width="90" height="78" viewBox="0 0 90 78" fill="none" xmlns="http://www.w3.org/2000/svg">
<path fill-rule="evenodd" clip-rule="evenodd" d="M80.5143 8.62134L47.4496 0.552347C40.9592 -1.03155 35.5268 5.04218 37.2272 11.1561C40.4751 22.8338 41.2884 30.731 39.9463 37.0231C38.6597 43.0547 35.2052 48.4298 27.966 54.6387C22.9319 58.9564 24.3425 67.7917 31.4561 69.5277L63.7555 77.4099C66.7325 78.1364 69.8825 77.1969 71.9744 74.9495C80.7828 65.4863 86.4553 56.8936 88.7872 47.0516C91.1101 37.2475 89.9206 27.0204 86.7118 14.7212C85.925 11.7052 83.5404 9.35983 80.5143 8.62134ZM43.0734 9.5301C42.5702 7.72112 44.1869 6.00225 46.011 6.4474L79.0757 14.5164C79.9354 14.7262 80.6169 15.3967 80.8403 16.2531C87.0683 40.1249 84.4942 52.5926 67.5327 70.8152C66.9397 71.4523 66.0397 71.7212 65.1941 71.5149L32.8947 63.6326C30.9157 63.1497 30.3702 60.5709 31.9165 59.2447C47.6356 45.7627 49.7167 33.4165 43.0734 9.5301ZM53.4098 16.6596C52.2352 16.3353 51.0201 17.0247 50.6958 18.1993C50.3715 19.3739 51.0608 20.589 52.2355 20.9133L72.1031 26.3982C73.2778 26.7225 74.4929 26.0332 74.8171 24.8585C75.1414 23.6839 74.4521 22.4688 73.2775 22.1445L53.4098 16.6596ZM52.7268 29.1957C53.0511 28.0211 54.2662 27.3317 55.4408 27.656L75.3085 33.1409C76.4831 33.4652 77.1724 34.6803 76.8481 35.855C76.5239 37.0296 75.3088 37.7189 74.1341 37.3946L54.2665 31.9097C53.0918 31.5854 52.4025 30.3703 52.7268 29.1957ZM52.0663 38.5583C50.8917 38.234 49.6766 38.9233 49.3523 40.098C49.028 41.2726 49.7173 42.4877 50.892 42.812L70.7596 48.2969C71.9342 48.6212 73.1494 47.9318 73.4736 46.7572C73.7979 45.5826 73.1086 44.3675 71.934 44.0432L52.0663 38.5583ZM26.023 27.6883L11.8717 12.2178C10.1062 10.2877 7.11042 10.1543 5.18038 11.9198C3.25035 13.6852 3.11693 16.681 4.88238 18.6111L19.3331 34.4089C20.3968 35.5717 21.8711 36.2751 23.4441 36.3703L27.1368 36.5937L27.5796 32.425C27.7633 30.696 27.1965 28.9712 26.023 27.6883ZM30.3897 40.4379L31.2001 32.8096C31.494 30.0432 30.5871 27.2836 28.7094 25.2309L14.5581 9.76041C11.4355 6.34669 6.13673 6.11071 2.72301 9.23333C-0.690705 12.356 -0.926687 17.6547 2.19594 21.0684L16.6467 36.8663C18.3485 38.7268 20.7074 39.8522 23.2243 40.0045L30.3897 40.4379ZM67.1227 51.6744C67.3675 51.6075 67.646 51.55 67.7417 51.5467C68.092 51.5348 68.2517 51.6919 68.4678 52.261C69.2463 54.3108 70.6316 55.8439 72.7852 57.0392C73.4842 57.4272 73.5725 57.5104 73.6145 57.8215C73.636 57.98 73.6298 57.9963 73.1891 58.9411C72.5551 60.3004 71.4439 62.4441 71.0418 63.0837C69.3409 65.7891 67.6049 67.3192 65.3124 68.1339C63.792 68.6741 62.0721 68.8459 60.1769 68.6468C59.886 68.6162 59.6011 68.5677 59.5439 68.5391C59.4101 68.472 58.8137 67.8268 58.3567 67.2548C56.8678 65.3909 56.079 63.3735 55.9988 61.2242C55.9414 59.6875 56.2723 58.0363 57.033 56.0627C57.3047 55.3579 58.3571 53.1846 59.0667 51.8632C59.5598 50.9447 59.5691 50.93 59.709 50.8523C59.9833 50.6998 60.1029 50.7207 60.832 51.0485C63.0516 52.0464 65.0401 52.2442 67.1227 51.6744ZM69.5438 56.3068C68.7054 55.4819 67.9966 54.4716 67.5168 53.4179C67.4203 53.2062 67.332 53.0283 67.3205 53.0225C67.309 53.0167 67.1138 53.0521 66.8867 53.1011C65.7395 53.3485 64.5221 53.385 63.3587 53.207C62.5452 53.0825 61.8454 52.8862 60.8994 52.5173C60.6073 52.4034 60.3549 52.3147 60.3386 52.3202C60.2764 52.341 58.4008 56.1345 58.232 56.5808C57.4719 58.591 57.2185 59.9703 57.3244 61.5209C57.4527 63.3998 58.3526 65.3161 59.925 67.0589L60.1569 67.3159L60.5016 67.3479C63.0936 67.5882 65.2307 67.0717 66.9726 65.7839C68.0644 64.9769 68.8822 64.0437 69.9092 62.4332C70.1657 62.0309 72.0823 58.2579 72.0618 58.1956C72.0564 58.1792 71.8343 58.0301 71.5682 57.8643C70.7065 57.3272 70.1304 56.884 69.5438 56.3068ZM64.7758 59.7264C65.9938 59.3196 67.0347 58.9907 67.0889 58.9957C67.1431 59.0006 67.259 59.0393 67.3464 59.0817C67.7774 59.2906 67.8402 59.8448 67.4692 60.1665C67.3364 60.2817 62.544 61.9083 62.2332 61.9438C62.0119 61.9689 61.7783 61.8761 61.6373 61.7067C61.5313 61.5794 60.6649 58.9355 60.681 58.7887C60.7377 58.2747 61.3107 58.0168 61.7338 58.315C61.8694 58.4106 61.8925 58.4642 62.2187 59.4408L62.5612 60.4661L64.7758 59.7264Z" fill="url(#paint0_linear_45_584)"/>
<defs>
<linearGradient id="paint0_linear_45_584" x1="45" y1="0.297485" x2="45" y2="77.6514" gradientUnits="userSpaceOnUse">
<stop stop-color="#54C1E4"/>
<stop offset="1" stop-color="#3CC4B4"/>
</linearGradient>
</defs>
</svg>
